<svg width="201" height="43" viewBox="0 0 201 43" fill="none" xmlns="http://www.w3.org/2000/svg">
<path d="M0.146286 23.3328C1.24481 21.633 2.52422 20.1433 3.94623 18.9085C5.5213 17.2322 7.07739 15.5214 8.86908 14.2261C9.71837 12.948 11.1281 12.7513 12.1541 11.4265C11.0008 11.2815 10.0642 10.8686 9.26237 10.0574C8.95378 9.84668 8.69707 9.5282 8.52138 9.13817C7.50868 7.17181 7.0869 4.91787 6.59669 2.69589C6.40671 1.99046 5.9697 1.521 5.57829 1.00728C5.4548 0.847518 5.2686 0.66563 5.38831 0.397714C5.508 0.129798 5.717 0.208453 5.89369 0.23549C6.3212 0.299397 6.7449 0.397714 7.1705 0.481284C8.03308 0.41492 8.81207 0.668088 9.45047 1.46446C10.429 2.36161 11.1091 3.5955 11.7456 4.87855C12.5816 6.32382 13.2276 7.97064 14.4056 9.05705C15.1162 9.84605 15.9009 9.28564 16.6571 9.26844C17.5101 8.55809 18.5171 8.44748 19.4557 8.07879C19.982 7.87232 20.8332 7.81579 20.8826 7.19885C20.9985 5.70442 21.6027 4.39433 21.6426 2.8827C21.6673 1.68568 21.9124 1.48167 22.7484 1.83315C22.8276 1.82932 22.905 1.86445 22.965 1.93147C24.2076 3.16044 26.1113 2.54104 27.1164 4.43366C27.1626 4.48379 27.2177 4.51833 27.2767 4.5342C27.3357 4.55007 27.3968 4.54677 27.4546 4.5246C28.0094 4.20015 28.2811 4.72861 28.5623 5.14401C28.9423 5.69213 29.2615 6.28695 29.6092 6.86457C29.9341 6.90389 30.2894 6.71955 30.5706 7.08578C31.6554 6.91618 32.6624 7.73468 33.7644 7.62899C34.4351 7.77646 35.0944 8.01243 35.7594 8.17465C36.6505 8.39341 37.5644 8.63429 38.351 9.30285C38.337 9.32937 38.3204 9.35335 38.3015 9.37413L38.3452 9.30039C38.6511 9.40608 39.0159 9.18978 39.2686 9.58551C39.6106 9.69858 39.9298 10.3057 40.268 9.91733C40.5245 9.62238 40.078 9.22665 40.0666 8.83584C40.0533 8.51631 40.0381 8.19431 40.0229 7.87232C39.6429 6.99238 39.8975 6.0387 39.85 5.12188C39.7968 4.06988 39.945 2.9933 39.5384 2.00029C39.4453 1.77416 39.1812 1.57015 39.451 1.26291C39.6904 0.999911 39.9279 1.12527 40.1464 1.30961C40.9995 2.03225 41.769 2.85812 42.1395 4.14854L42.0882 4.20015L42.1319 4.14854C42.5309 4.45578 42.5632 5.01619 42.6563 5.51024C43.0363 7.5233 43.1541 9.62238 43.8115 11.5519C44.1193 12.4146 44.5886 13.0389 45.3315 13.2724C46.2263 13.5182 46.8362 14.3613 47.5525 14.993C47.9743 15.3617 48.3125 15.7894 48.4151 14.5997C48.4968 13.6362 48.6203 12.6039 49.1485 11.7977C49.1485 11.3896 49.1371 10.9841 49.1485 10.5687C49.1599 10.0992 49.0459 9.46999 49.5665 9.39133C49.9997 9.32251 50.2277 9.76248 50.2885 10.3081L50.4899 11.0259C50.6033 11.1018 50.6976 11.218 50.7619 11.3607C50.8262 11.5035 50.8577 11.667 50.8528 11.8321C50.8243 13.1717 50.9801 14.5235 50.7255 15.8533C50.5659 16.6865 50.7255 17.4731 50.9763 18.2326C51.077 18.53 51.191 18.8692 51.4931 18.8618C51.873 18.8618 51.7895 18.4144 51.8408 18.1244C52.0306 17.0089 52.4786 15.9946 53.1251 15.2167C54.0561 13.7837 55.2683 13.3265 56.6648 13.4961C58.124 13.6854 59.3247 15.3297 59.566 17.4681C59.718 18.8151 58.8061 20.7225 57.6927 21.3541C57.3982 21.5472 57.0728 21.6478 56.7427 21.6478C56.4126 21.6478 56.0871 21.5472 55.7927 21.3541C55.7542 21.2704 55.6979 21.2027 55.6306 21.1592C55.5632 21.1156 55.4876 21.098 55.4127 21.1084C54.6831 21.0674 54.3031 20.5758 54.2727 19.6336L54.4627 18.8962C54.8427 17.7656 55.5419 17.9917 56.1176 18.4046C56.6477 18.7782 56.965 18.6504 57.2177 18.0826C57.4913 17.4706 57.2443 16.9544 56.8472 16.6079C55.8706 15.7795 54.2708 16.7406 54.0865 18.2326C54.0428 18.5914 53.8965 18.9699 53.9592 19.3042C54.1492 20.3611 53.7692 21.627 54.5957 22.4406C55.1657 22.9961 55.6521 23.6695 56.2411 24.2004C56.9384 24.8321 57.7611 25.3016 58.2665 26.243C59.8848 27.5567 61.5694 28.7285 63.309 29.7505C64.7663 30.6231 66.3489 31.0385 67.7948 31.9012C68.2371 31.8717 68.6775 31.9938 69.0716 32.2551C69.4953 32.5427 69.9323 32.4862 70.0596 31.8201C70.2496 30.7632 71.3155 29.9815 70.6923 28.6395C70.6714 28.5953 70.8823 28.3667 70.9925 28.2241C71.4086 27.381 71.9995 26.7493 72.5353 26.0464C73.5403 24.6847 75.0432 24.5003 76.2174 23.4262C73.5802 24.7756 70.964 24.901 68.3363 23.5761C68.2499 23.5297 68.1656 23.4772 68.0836 23.4188C67.1602 22.7036 65.532 22.9911 65.722 20.6561C65.722 20.5406 65.4902 20.4103 65.3952 20.2579C65.1406 19.8499 64.7112 19.6754 64.5345 19.1666C64.2001 18.8446 63.8733 18.5152 63.7346 17.9769C63.328 17.7803 63.2862 17.36 63.5009 16.9938C63.7156 16.6275 63.6206 16.3129 63.5826 15.9639L63.2235 15.4477C62.5927 14.9905 62.5186 14.0467 62.1443 13.3658C62.0341 13.1643 62.0094 12.8103 62.1652 12.6825C62.7352 12.218 62.4179 11.7534 62.2488 11.2299C62.0208 10.5171 61.8365 9.77723 61.656 9.03985C61.3273 7.68552 61.5629 7.22834 62.6611 7.13494C62.9347 7.11036 63.2197 7.27504 63.4952 7.26275C64.1469 7.23326 64.8765 7.91411 65.4066 7.38565C66.4402 6.35331 67.259 7.04645 68.1425 7.60932C68.4864 7.78138 68.8132 8.04684 69.1552 7.54787C69.3965 7.19639 69.7366 7.27013 70.0159 7.48643C70.7759 8.08371 71.6214 8.55317 72.1496 9.55847C72.3738 9.69366 72.6398 10.0673 72.8241 9.88292C73.5973 9.11604 73.8595 9.99845 74.2395 10.5318C74.619 10.8534 74.9399 11.2777 75.18 11.7755C75.661 12.2714 75.9963 12.9653 76.13 13.7419C76.32 14.3146 76.51 14.8848 76.7 15.4625C77.0439 15.8778 76.8254 16.4309 76.9128 16.9102L76.8672 16.9569C76.8824 16.9372 76.8976 16.92 76.9109 16.9004C77.5797 18.1293 77.0458 19.6459 77.4467 20.9363C77.5246 19.4148 77.2833 17.8958 77.5493 16.4014C77.5426 16.2387 77.5766 16.0776 77.6462 15.9418C77.7369 15.4687 77.857 15.006 78.0053 14.5579C78.3093 13.8205 78.4157 12.6211 79.0351 12.4613C79.8198 12.2573 80.1484 11.5175 80.6785 11.0185C80.9673 10.5269 81.2618 9.78952 81.7064 9.87555C82.6032 10.0673 83.1371 9.32005 83.8078 8.89237C83.9769 8.78422 84.1878 8.56055 84.3189 8.61954C85.419 9.11113 86.3215 8.21152 87.3038 7.93869C88.0542 7.73222 88.2537 8.05175 88.2993 8.95874C88.3601 10.2074 87.9041 11.4953 88.4684 12.7194C88.5131 12.8543 88.5184 13.0056 88.4835 13.1452C88.4486 13.2849 88.3757 13.4034 88.2784 13.4789C88.1834 14.4621 87.4975 15.3346 88.0884 16.4161C88.2157 16.6619 87.9668 17.0085 87.7236 17.1683L87.6742 17.1019L87.6609 17.1486L87.7236 17.1683C87.4291 18.2866 86.3709 18.997 86.6787 20.457C86.7053 20.5873 86.4735 20.8503 86.3272 20.9928C85.8541 21.4549 85.3639 21.8924 84.8813 22.3373C84.1384 23.3967 83.0003 23.409 82.0313 24.0284C82.7286 24.8518 83.6615 24.6208 84.3113 25.2574C85.6413 25.5499 86.9542 25.921 88.2879 26.1176C90.8225 26.4888 93.378 27.1451 95.8669 25.744L97.0449 24.343C97.155 24.1021 97.2822 23.875 97.4249 23.6646C99.6878 20.8355 102.004 18.0826 104.59 15.7525C106.233 14.2777 107.82 12.6432 109.758 11.7878C109.889 11.2323 109.533 11.3282 109.34 11.3184C108.564 11.2717 107.92 10.8071 107.284 10.3106C106.78 10.2393 106.562 9.73299 106.309 9.26598C105.051 6.97517 104.74 4.18786 103.875 1.69059L103.685 1.4448C103.271 1.47921 103.066 1.08348 102.857 0.734453C102.648 0.385425 102.667 0.0462283 103.047 0.0191909C104.208 -0.074211 105.327 0.161752 106.33 0.982705C106.777 1.34648 107.267 1.64635 107.66 2.08632C108.948 3.51193 109.666 5.47829 110.521 7.31191C110.812 7.6806 111.116 8.03455 111.394 8.42045C112.235 9.58305 113.16 10.1779 114.388 9.34955C114.768 9.10375 115.22 9.00298 115.64 8.83584C116.32 8.16236 117.185 8.21398 117.947 7.85266C118.239 7.71993 118.634 7.6806 118.653 7.17427C118.699 5.82486 119.383 4.71632 119.297 3.24156C119.204 1.65372 119.913 1.28995 121.007 2.0642C121.475 2.39357 121.94 2.96872 122.467 2.87286C123.55 2.67623 124.177 3.44311 124.756 4.37958C126.035 4.43366 126.643 5.60856 127.226 6.83753C127.606 6.92602 128.03 6.6753 128.366 7.08332C129.533 6.99238 130.625 7.73959 131.799 7.59458C131.972 7.57668 132.147 7.60861 132.309 7.68808C132.472 7.76754 132.619 7.89258 132.74 8.05421L132.7 8.10829L132.732 8.05421C133.047 8.12795 133.403 7.95589 133.682 8.30001L133.648 8.35408C133.649 8.36634 133.649 8.37869 133.648 8.39095L133.676 8.30001C134.148 8.28665 134.611 8.45801 135.006 8.7916L134.972 8.84321C134.972 8.84321 134.972 8.85796 134.972 8.86533L135.003 8.7916C135.844 8.89483 136.606 9.32005 137.372 9.73545C137.562 9.83376 137.761 10.1361 137.951 9.8436C138.115 9.5978 137.902 9.32251 137.845 9.06197L137.828 8.59742C137.541 8.23364 137.678 7.76663 137.638 7.34387C137.566 5.6061 137.828 3.83884 137.336 2.13794C137.258 1.86757 136.956 1.55049 137.26 1.28749C137.382 1.18639 137.528 1.14316 137.672 1.16511C137.817 1.18706 137.951 1.27283 138.052 1.40793C138.776 2.35915 139.663 3.12849 140.108 4.39679C140.566 5.06535 140.376 5.93546 140.533 6.69988C140.913 8.56055 140.987 10.5441 141.863 12.2057L141.799 12.2917L141.858 12.1983C143.032 13.1397 144.244 14.0147 145.367 15.0495C146.011 15.6443 146.233 15.3174 146.294 14.5751C146.418 13.0758 146.982 11.692 146.953 10.1508C146.953 9.85343 146.978 9.54127 147.212 9.41346C147.512 9.25861 147.698 9.5806 147.835 9.82885C148.27 10.6301 148.698 11.4535 148.661 12.5006C148.604 14.0442 148.521 15.5854 148.471 17.1314C148.451 17.8245 148.625 18.5644 149.148 18.7389C149.758 18.9454 149.429 17.8762 149.796 17.6377C149.836 17.0503 150.142 16.6324 150.366 16.163C150.67 14.9512 151.527 14.5334 152.266 13.9508C152.933 13.2503 154.656 13.2528 155.306 13.9508C155.428 13.9474 155.548 13.9928 155.65 14.0807C155.752 14.1686 155.831 14.2949 155.876 14.4424L156.066 14.6882C156.784 14.8332 156.835 15.7033 157.048 16.3203C157.578 17.8516 157.156 19.5377 156.028 20.7446C155.102 21.745 154.196 21.7892 153.111 20.8871C153.081 20.8675 153.052 20.8436 153.026 20.8159C152.579 20.3415 151.907 19.9605 152.311 18.9945C152.68 18.1146 153.261 18.2178 153.852 18.6529C154.377 19.0338 154.842 18.8987 155.146 18.2252C155.45 17.5517 155.323 16.8635 154.814 16.4112C154.483 16.0943 154.083 15.9243 153.672 15.927C153.261 15.9297 152.861 16.1047 152.534 16.426C151.466 17.3723 151.416 18.8643 151.327 20.3267C151.394 21.2853 151.601 22.1579 152.214 22.7847C154.375 25.0214 156.584 27.1475 159.113 28.669C159.125 28.7015 159.145 28.7276 159.17 28.7427L159.113 28.669C159.336 28.6538 159.559 28.7109 159.76 28.8349C159.962 28.9589 160.137 29.146 160.268 29.3793L160.238 29.4236C160.237 29.4284 160.237 29.4335 160.238 29.4383L160.267 29.3793C161.095 29.4973 161.786 30.0184 162.48 30.5616C162.505 30.5731 162.528 30.5906 162.548 30.6132C163.58 30.7927 164.526 31.3506 165.52 31.7168C166.06 31.911 166.599 32.2846 167.135 32.2773C167.895 32.2773 167.773 31.1048 168.187 30.596C168.261 30.5206 168.34 30.4548 168.423 30.3994C168.636 30.0971 168.919 29.7136 168.733 29.3425C168.294 28.4773 168.744 28.1135 169.174 27.6834C169.875 26.302 170.986 25.5867 172.024 24.7609C172.242 24.4702 172.512 24.2515 172.809 24.1232C173.107 23.9949 173.424 23.9607 173.734 24.0235C173.827 23.758 174.134 23.6744 174.1 23.3008C173.756 23.173 173.473 23.4606 173.15 23.5466C172.493 23.9768 171.777 24.1144 171.06 24.284C170.135 24.6779 169.136 24.6779 168.21 24.284C167.975 24.2005 167.739 24.1095 167.502 24.0382C166.618 23.7654 165.693 23.6425 164.965 22.8314C164.353 22.7159 163.517 22.2906 163.55 21.713C163.629 20.2382 162.79 19.9187 162.185 19.2747C161.361 18.4022 160.603 17.5198 161.18 15.9491C160.736 15.214 160.362 14.4118 160.067 13.56C159.961 13.2724 159.79 12.9357 160.042 12.6702C160.472 12.2204 160.331 11.8345 160.092 11.3208C159.893 10.8161 159.738 10.2843 159.63 9.73545C159.077 7.54788 159.311 7.16198 161.076 7.35616C161.292 7.37828 161.505 7.49134 161.722 7.50855C162.307 7.55771 162.909 7.79121 163.462 7.3242C164.139 6.72938 164.792 7.18901 165.438 7.4176C165.991 7.61424 166.535 8.38112 167.093 7.38811C167.146 7.29225 167.473 7.35861 167.621 7.45939C168.265 7.8797 168.934 8.26314 169.388 9.04231C169.81 9.04231 170.07 9.93946 170.338 9.68383C171.184 8.86533 171.503 9.88538 172.003 10.3032C173.832 12.3015 174.492 15.079 174.936 18.0949C175.506 17.3723 175.001 16.4923 175.43 15.9172C175.899 14.4252 176 12.8349 177.573 12.068C178.523 11.601 179.093 10.0796 180.423 9.6273C181.4 9.29302 182.297 8.55809 183.391 8.78176C184.13 8.12058 184.985 7.52821 185.739 8.12058C186.494 8.71294 186.11 9.87063 185.96 10.8243C185.903 11.193 185.614 11.6059 185.985 11.9353C186.431 12.3335 186.315 12.8226 186.199 13.3486C186.045 14.0467 185.629 14.9389 185.831 15.4133C186.232 16.3965 185.88 16.9938 185.557 17.7066C185.287 18.0998 185.177 18.6553 184.797 18.9355C184.417 19.4886 185.074 20.2137 184.607 20.7593C183.292 22.2833 181.947 23.7433 180.064 23.8514C179.84 24.697 180.425 24.5102 180.703 24.6355C182.935 25.6467 185.264 26.2554 187.624 26.4446C190.045 26.6387 192.64 27.2925 194.662 24.5888C194.698 24.5421 194.781 24.5519 194.852 24.5372C196.423 22.7945 197.985 21.0272 199.389 19.0412C199.769 18.4931 200.234 17.9966 200.745 18.6602C201.209 19.26 200.977 19.9187 200.559 20.484C199.729 21.5926 198.908 22.7134 198.089 23.8293C197.289 25.1959 197.443 26.7395 197.629 28.2683C197.852 30.1118 197.74 31.825 196.712 33.2752C196.579 33.4644 196.448 33.6537 196.237 33.5873C196.026 33.521 195.992 33.2408 195.999 32.995C196.058 31.0409 195.087 29.4555 194.97 27.5359C193.497 28.3667 192.443 29.7874 191.044 30.4412L190.695 30.7066L190.296 31.9184C189.893 34.0396 189.752 36.2395 189.156 38.3091L188.776 38.8006L187.463 40.7817C187.237 41.2266 186.959 41.7182 186.513 41.438C186.066 41.1578 186.564 40.6736 186.513 40.2803C186.955 37.8814 186.37 35.4038 186.94 32.995C186.517 33.0122 186.262 33.4669 185.89 33.3317L185.354 33.4104C185.164 33.9609 184.784 33.902 184.404 33.902C184.363 33.9839 184.302 34.0463 184.231 34.08C184.16 34.1137 184.083 34.1168 184.01 34.0888C182.739 34.4009 181.52 35.0129 180.211 35.1358C179.878 35.4701 179.466 35.4873 179.082 35.6274C178.084 36.006 177.019 35.5832 176.042 36.119C175.78 36.6106 175.516 37.0875 175.253 37.5741C175.111 37.7831 174.968 38.1763 174.824 38.1763C173.81 38.1886 173.198 39.103 172.485 39.801C172.388 39.8969 172.234 40.0296 172.153 39.9903C171.091 39.4987 170.403 40.5581 169.559 40.9735C169.236 41.1332 168.841 41.5068 168.609 40.7695L168.419 40.5482C168.283 40.2913 168.21 39.9871 168.21 39.6757C168.21 39.3642 168.283 39.06 168.419 38.8031C168.419 38.3975 168.419 37.992 168.433 37.5864C167.504 37.1292 167.711 36.0649 167.654 35.1432C166.958 35.2096 166.364 34.8261 165.771 34.4304L165.41 34.3739C165.204 34.3928 164.998 34.3592 164.802 34.2748C164.606 34.1905 164.425 34.0571 164.27 33.8823C163.932 33.8823 163.586 33.956 163.272 33.725C162.995 33.5136 162.688 33.3754 162.37 33.3185C162.051 33.2615 161.727 33.2869 161.416 33.3932L161.462 33.3366C161.443 33.3501 161.427 33.3696 161.416 33.3932C160.542 34.0314 159.819 34.9662 159.326 36.0969C159.157 37.2153 158.566 38.0633 158.083 38.926C157.373 40.2164 156.626 41.5953 155.266 41.9296C154.401 42.1213 153.539 42.3204 152.67 42.4925C152.519 42.5257 152.363 42.4798 152.237 42.3647C152.102 42.1975 152.216 41.9738 152.336 41.8436C153.624 40.4327 153.845 38.3459 154.394 36.4656C154.774 35.1408 155.123 33.7619 156.069 32.8844C156.211 32.5848 156.41 32.3373 156.647 32.1652C156.884 31.9931 157.151 31.9022 157.422 31.9012L158.868 31.2597C158.741 30.7853 158.444 30.7681 158.194 30.6722C157.895 30.5592 157.557 30.5247 157.304 30.3158C155.562 28.8878 153.736 27.6121 152.175 25.8473C151.004 24.5249 149.722 23.3574 148.709 21.8089C147.548 20.5062 146.351 19.2526 145.24 17.8762C143.836 16.1556 142.124 16.1556 140.389 16.2539C139.042 16.3375 137.701 16.5415 136.357 16.6939C136.294 16.7508 136.219 16.7816 136.143 16.7824C134.433 17.4853 132.62 17.7164 130.899 18.6799C131.628 19.2944 132.491 19.2084 133.116 19.8622C134.165 20.194 134.826 21.278 135.628 22.0743C135.78 22.2243 135.949 22.6741 135.886 22.8117C135.432 23.7384 136.125 24.1611 136.35 24.7781C136.648 25.2967 137.193 25.9677 137.026 26.4224C136.599 27.5777 137.142 28.4527 137.252 29.4482C137.292 29.7996 137.341 30.2667 137.205 30.5149C136.876 31.1097 136.916 31.7439 136.918 32.3854C137.054 32.6869 137.126 33.0301 137.126 33.3796C137.126 33.7291 137.054 34.0723 136.918 34.3739C136.77 35.0621 136.45 35.0596 135.968 34.8851C135.257 34.6246 134.571 33.8061 133.878 34.0716C133.215 34.3173 132.797 34.0716 132.324 33.7053C131.801 33.2973 131.374 32.6533 130.631 33.0343C130.397 33.1523 130.097 32.8573 130.044 32.4149C129.462 31.9233 129.162 31.1024 128.714 30.4485C127.65 30.6796 127.178 29.957 127.026 28.7034C126.662 27.7841 126.646 26.737 126.436 25.7735C126.371 25.7237 126.319 25.6509 126.285 25.5638C126.251 25.4766 126.238 25.3788 126.246 25.2819C125.486 25.2107 125.799 26.0759 125.721 26.4593C125.396 28.0717 125.085 29.6546 124.112 30.8664C124.023 30.9795 123.922 31.0876 123.844 31.208C123.113 32.2674 122.598 33.8307 121.123 33.1351C120.479 34.0027 119.805 34.8139 118.874 35.1432C118.251 36.2862 117.872 34.8974 117.354 34.8974C116.294 35.4087 115.264 36.5516 114.099 35.1629C113.996 35.0424 113.719 35.0818 113.552 35.1629C112.875 35.4505 112.18 35.3644 111.49 35.3767C110.466 35.3915 110.28 35.0867 110.499 33.7717C110.572 33.4611 110.661 33.1572 110.767 32.8622C110.97 32.1396 111.5 31.1761 111.31 30.7361C110.708 29.3425 111.523 28.524 111.811 27.5015C111.963 26.8575 112.438 26.2971 112.019 25.5056C111.889 25.2598 112.125 24.9231 112.383 24.7953C113.117 24.0407 113.713 23.0747 114.557 22.4873C114.698 22.3889 114.844 22.2144 114.779 21.9957C114.367 20.6782 115.222 20.661 115.777 20.3316L115.976 20.0859C116.774 19.1027 117.757 18.8397 118.811 18.8569L118.853 18.9282L118.803 18.8593C119.126 18.4734 119.523 18.4415 119.943 18.3899C121.186 18.2375 122.37 18.6774 123.576 18.8962C124.045 18.8962 124.448 19.4345 124.976 19.1617C123.291 18.4194 121.581 17.6377 120.39 15.7156C120.16 15.0889 119.349 14.7472 119.493 14.0958C119.774 12.83 119.1 12.0484 118.868 11.0504C118.811 10.4777 118.638 10.3426 118.161 10.5097C115.121 11.5617 112.167 12.862 109.38 14.757C108.872 15.1749 108.399 15.6689 107.812 15.9049C106.334 16.8487 105.087 18.2203 103.805 19.5254C102.475 20.8773 102.059 23.7801 102.954 25.6162C103.227 26.1651 103.643 26.5693 104.127 26.7559C104.611 26.9425 105.13 26.8992 105.591 26.6338C106.4 26.1422 106.514 25.6089 106.129 24.0702C105.938 23.8866 105.707 23.7875 105.469 23.7875C105.232 23.7875 105.001 23.8866 104.81 24.0702C104.419 24.8666 103.94 24.633 103.556 24.1415C103.172 23.6499 103.195 23.0845 103.602 22.529C104.468 21.3443 105.768 21.1551 106.908 22.1038C108.177 23.409 108.471 25.3262 107.673 27.0467C107.661 27.1977 107.62 27.3424 107.553 27.4676C107.487 27.5929 107.398 27.6949 107.293 27.7645C107.139 28.2069 106.832 28.4085 106.533 28.6272C104.647 29.9766 102.298 28.6837 101.403 26.5183C100.915 25.9726 100.851 25.1812 100.706 24.4487C100.562 23.7162 100.339 23.8146 100.02 24.2521C99.9246 24.3569 99.8462 24.4855 99.7897 24.6304C99.7332 24.7752 99.6998 24.9333 99.6916 25.0951C99.7049 26.3094 99.6118 27.5531 99.7657 28.7329C99.9138 29.8095 99.8202 30.9184 99.4959 31.9282C99.4329 32.1946 99.3587 32.4564 99.2736 32.7123C99.1007 33.1719 98.8062 33.5824 98.4205 33.4644C98.0348 33.3465 98.1868 32.7983 98.1716 32.4149C98.1564 32.0315 98.1602 31.6161 98.1545 31.2154L98.1963 31.1761L98.1545 31.2277C97.9303 30.6132 97.6795 30.0233 97.5845 29.3302C97.3603 27.5531 97.3451 27.5555 96.0645 28.229C96.0027 28.2509 95.9386 28.2608 95.8745 28.2585C94.9777 28.9787 94.0221 29.5735 93.2146 30.4707C92.9612 31.1261 92.7079 31.7816 92.4546 32.437C92.4679 33.1375 92.4413 33.8258 92.0746 34.4034C92.0119 34.7966 91.9264 35.185 91.8846 35.5832C91.6946 37.7953 91.0448 39.6978 89.6046 41.0374C89.2797 41.2832 89.0004 42.0205 88.5938 41.6076C88.2271 41.2389 88.5235 40.6244 88.7059 40.1525C88.8883 39.6806 88.8199 39.1939 88.8427 38.7122C88.9263 36.8294 88.6033 34.9171 89.2607 32.6976C88.5862 33.3686 88.0276 33.4349 87.4994 33.6537C85.8902 34.3001 84.3094 35.1285 82.5861 35.1555L82.5006 35.2071C82.0807 35.4529 81.6152 35.5021 81.1706 35.6594C80.0497 36.0625 78.7007 35.4013 77.802 36.849C77.422 37.2398 77.3194 38.1567 76.7019 38.0264C76.0844 37.8961 75.826 38.314 75.5258 38.8006C75.2788 39.4717 74.8095 40.1132 74.3193 39.9804C73.4111 39.7347 72.845 40.4376 72.1648 40.8506C71.9715 40.9844 71.7525 41.0433 71.534 41.0202C71.4754 41.0197 71.417 41.0254 71.3592 41.0374C71.2977 41.0879 71.2273 41.1176 71.1545 41.1236C71.0818 41.1296 71.0091 41.1118 70.9431 41.0718C70.5954 41.003 70.4529 40.5802 70.4149 39.6388C70.375 38.604 70.4985 37.5422 70.0444 36.5934C70.0432 36.5181 70.0362 36.4432 70.0235 36.3697C69.8601 35.6004 69.6112 34.9662 68.8683 34.9785C68.7505 34.9785 68.6308 34.7598 68.513 34.6418C67.7397 34.7672 67.0576 34.4501 66.423 33.9044C66.0051 33.8872 65.532 34.0912 65.2831 33.4128C64.7131 33.4128 64.1431 33.167 63.5731 33.4128C62.34 34.2485 61.6579 35.7159 60.9587 37.1759C60.0961 38.9752 59.2924 40.8506 57.6775 41.7502C57.5918 41.8535 57.4927 41.9367 57.3849 41.996C56.6249 42.576 55.7509 42.6867 54.875 42.7334C54.5729 42.753 54.115 42.8956 54.0371 42.4409C53.9592 41.9861 54.3411 41.7035 54.6717 41.5363L55.0175 41.2168C55.0194 41.2621 55.0232 41.3072 55.0289 41.352L55.1011 41.2733L55.0175 41.2168C55.6521 39.7101 56.0169 38.0731 56.4311 36.4533C56.9897 34.2559 57.8333 32.3461 59.7085 31.5743C60.0733 31.4219 60.5312 31.6382 60.8827 31.1245C57.7056 29.0922 54.7778 26.4642 52.1942 23.3254C52.1942 23.3254 52.177 23.3254 52.1675 23.2959C50.9649 21.9465 49.7926 20.5479 48.5576 19.2649C47.6589 18.3407 46.9008 16.9962 45.719 16.7553C44.6114 16.5317 43.4733 16.308 42.3333 16.4628C41.8583 16.9249 41.3111 16.6029 40.8038 16.7086L39.489 16.7258C39.3595 16.7939 39.2221 16.8338 39.0824 16.8438L34.5339 18.1785C34.2527 18.5103 33.7739 18.2743 33.4889 18.7979C33.8936 18.9896 34.2698 19.1543 34.6289 19.346C35.4383 19.7614 36.3066 20.0588 36.8234 21.0887L36.7683 21.1501H36.793L36.8234 21.0764C37.42 21.4697 38.1971 21.9981 38.0356 22.8387C37.8931 23.5761 38.1192 23.8219 38.3548 24.2619C38.5656 24.6576 38.8544 24.9993 38.9247 25.5179C39.6163 26.27 38.995 27.1721 39.0919 27.9931C39.603 28.6592 39.793 29.7456 39.5308 30.3084C39.014 31.4145 39.3085 32.351 39.4263 33.3809C39.4909 33.9585 39.4035 34.5263 39.0197 34.895C38.636 35.2637 38.2598 35.0326 37.9406 34.6344C37.097 34.7254 36.3598 33.4792 35.4364 34.3051C35.3737 34.3616 35.1495 34.1158 34.9728 33.9585C34.9467 33.9448 34.9228 33.9248 34.9025 33.8995C34.5225 33.8774 34.3325 33.4497 34.0095 33.2924C33.7739 33.1744 33.6846 32.6066 33.3236 32.8991C32.8106 33.3096 32.5313 32.8745 32.2444 32.437C31.7547 32.0024 31.3616 31.4091 31.1044 30.7165C30.0139 30.4707 29.3052 29.7333 29.2178 28.2241L29.1988 27.7522C28.6839 27.585 28.6725 27.0369 28.6402 26.5085C28.3495 26.2848 28.5262 25.8079 28.3894 25.4393L28.0816 26.0169C27.7585 28.3416 26.8971 30.4844 25.6116 32.1617C25.2468 32.7344 24.8402 33.7324 24.3006 33.3907C23.5407 32.8991 23.2272 33.4989 22.7693 33.897C22.5971 34.2281 22.3748 34.5106 22.1159 34.7273C21.8569 34.9441 21.5666 35.0906 21.2626 35.158C21.0726 35.5365 20.704 35.8044 20.4551 35.5807C19.6514 34.8581 18.9921 35.5807 18.2606 35.7454C17.7571 35.8659 17.0276 36.4828 16.754 35.9126C16.2486 34.8704 15.7641 35.3939 15.1903 35.5193C14.6281 35.6169 14.0598 35.6432 13.4936 35.5979C12.631 35.5684 12.3536 35.0842 12.6234 34.0273C12.9312 32.8229 13.2922 31.6406 13.6304 30.451C13.3435 30.2396 12.9084 30.1118 13.1554 29.5072C13.5126 28.6346 13.7672 27.6686 14.4075 27.032L14.7742 26.5158C14.3543 25.9431 13.9116 25.368 14.7609 24.7756C15.2264 24.1415 15.5646 23.318 16.2809 23.0747C16.7198 22.6347 17.4095 22.4111 17.0599 21.3541C16.9592 21.0494 17.2289 20.8773 17.4265 20.7372C17.8065 20.4644 18.1865 20.1793 18.5665 19.899C18.6111 19.769 18.679 19.6545 18.7645 19.5652C18.8501 19.4758 18.9509 19.4142 19.0586 19.3853C20.3114 18.8437 21.614 18.5189 22.9327 18.4194C23.3773 18.498 23.8618 18.208 24.2626 18.6529L24.8231 18.6701C25.6914 18.6701 26.4571 19.378 27.3482 19.2649C26.6015 18.7069 25.7199 18.5742 25.0093 17.9376C23.8694 17.156 22.7427 16.3547 22.1594 14.7423C22.0777 14.4473 21.6939 14.172 21.8592 13.9262C22.4292 13.0955 21.7357 12.6457 21.5932 12.0361C21.5366 11.9515 21.4985 11.8488 21.483 11.7387C21.0289 10.6105 20.343 10.2221 19.3303 10.8243L13.0433 13.7566C11.0415 14.9998 9.1333 16.4809 7.34338 18.1809C7.2598 18.4759 7.0546 18.5939 6.8703 18.7536C5.43391 19.9826 4.52193 21.4795 4.85442 23.9153C5.13182 25.9554 6.01341 27.1451 7.64169 26.5822C8.40167 26.3192 8.72658 25.5425 8.42638 24.7363C8.09578 23.8465 7.63219 23.7334 6.98999 24.3553C6.89935 24.4574 6.79366 24.5347 6.67928 24.5825C6.5649 24.6303 6.4442 24.6476 6.32451 24.6334C6.20482 24.6191 6.08859 24.5736 5.98288 24.4997C5.87715 24.4257 5.78412 24.3247 5.70941 24.2029C5.37122 23.6794 5.28001 23.001 5.70941 22.5438C6.44279 21.7597 7.2617 21.1206 8.29909 21.4943C10.7159 22.3693 11.3029 25.8448 9.43907 28.2315C8.39598 29.5686 6.1958 29.5711 4.89621 28.4502C3.80563 27.5113 3.20332 26.2135 2.84804 24.6601C2.75114 24.2398 2.78914 23.7113 2.25334 23.8711L2.20395 23.7654L2.18875 23.7875C2.18875 23.7875 2.25334 23.8711 2.25334 23.8686C2.14314 24.5175 1.69476 24.7338 1.31857 24.9747C1.14783 25.0891 0.950729 25.1193 0.764053 25.0596C0.577377 24.9999 0.413849 24.8544 0.30397 24.6503C0.0702667 24.2496 -0.157715 23.7973 0.146286 23.3328ZM133.692 8.58513C133.683 8.59965 133.674 8.6136 133.665 8.62691L133.688 8.58759L133.692 8.58513ZM22.1765 5.59135V5.51515V5.53728C22.0853 5.44142 22.1176 5.66263 22.1765 5.59135ZM22.1765 5.59135C22.1847 5.58126 22.1917 5.56967 22.1974 5.55694C22.2368 5.39727 22.2623 5.23237 22.2734 5.06535C22.2595 5.24552 22.2269 5.42245 22.1765 5.59135ZM28.2564 19.6459C28.2779 19.6347 28.2978 19.6189 28.3153 19.5992L28.2659 19.582C28.2659 19.6041 28.2659 19.6238 28.2564 19.6459ZM42.3048 13.3142H42.2839L42.2972 13.3363L42.3048 13.3142ZM38.4402 12.0852C37.9007 11.751 37.1806 11.896 36.8196 11.0898H36.8063C36.7888 11.1202 36.7676 11.1467 36.7436 11.1684C35.0751 11.1065 33.4263 10.6862 31.8644 9.92471L31.7162 9.99107C30.9297 10.2123 31.7162 10.8243 31.5358 11.193C31.5358 11.3774 31.5358 11.5617 31.5471 11.746C31.6117 12.2242 31.6117 12.7132 31.5471 13.1913C31.5471 13.5526 31.5471 13.9115 31.5262 14.2728C31.4256 15.0471 31.6022 15.9368 30.9848 16.485C31.6098 16.6914 32.1513 15.8041 32.7935 16.2023C33.0988 15.7691 33.4845 15.444 33.9141 15.2577C34.3437 15.0715 34.8029 15.0303 35.2483 15.138C35.268 15.1605 35.2847 15.1871 35.2977 15.2167C35.7784 14.6096 36.3028 14.2507 36.9697 14.7251C36.9836 14.6795 37.0049 14.6384 37.0324 14.6046C37.912 13.9262 38.8867 13.8673 39.869 13.8992L39.9773 13.914C40.3383 13.4224 40.9026 13.8648 41.3073 13.6682C40.9653 13.2651 40.325 13.383 40.078 12.7391C40.035 12.7439 39.9918 12.7439 39.9488 12.7391C39.4265 12.6005 38.9196 12.3775 38.4402 12.0754V12.0852ZM39.6543 11.5543H39.6353C39.6353 11.5543 39.6467 11.574 39.6524 11.5863L39.6543 11.5543ZM28.2526 21.3615L28.2279 21.3886H28.2526V21.3566V21.3615ZM22.5603 1.97571H22.5508H22.5603ZM38.1401 9.81656H38.1287H38.1401ZM73.5479 39.2283L73.7379 39.1792C73.6722 39.1683 73.6054 39.1856 73.5479 39.2283ZM77.8381 22.5536L77.7944 22.5979H77.8058C77.7469 22.6986 77.84 22.6028 77.8381 22.5536ZM82.3638 27.0812C81.6342 26.7665 80.8172 26.6658 80.2301 25.9038C80.2251 25.8681 80.2219 25.8319 80.2206 25.7957C80.0307 25.8104 79.7476 25.7244 79.9224 26.2307C80.0595 26.6277 80.1326 27.0568 80.1371 27.4916C80.5018 27.7374 80.118 28.1971 80.3043 28.4969C80.6087 29.5256 80.6087 30.6636 80.3043 31.6923C80.3821 31.8692 80.3176 32.1519 80.2719 32.4296C80.3232 32.8278 80.517 32.963 80.9901 33.0712C82.732 32.7255 84.4545 32.2329 86.1467 31.5964C86.9219 31.3039 87.6191 30.6624 88.4722 30.714L90.5261 29.7308C90.6401 29.1557 90.4026 29.0868 90.0283 29.0524C87.4203 28.8082 84.8458 28.146 82.3638 27.0812ZM80.2739 25.3606H80.2625H80.2739ZM76.51 17.2346C76.5157 17.2333 76.5214 17.2333 76.5271 17.2346L76.51 17.1929V17.2346ZM86.7984 26.769H86.7642L86.7927 26.8034L86.7984 26.769ZM77.6538 16.9692L77.669 16.9372H77.6538V16.9692ZM126.211 21.2902H126.228H126.209H126.211ZM136.306 31.4096C136.319 31.4202 136.333 31.4285 136.348 31.4342C136.348 31.3949 136.348 31.3555 136.348 31.3187L136.306 31.4096ZM152.661 25.2967H152.682L152.663 25.2721C152.663 25.2804 152.662 25.2887 152.661 25.2967ZM151.397 16.2023C151.419 16.1579 151.442 16.1152 151.468 16.0745H151.416C151.412 16.1143 151.406 16.1537 151.397 16.1925V16.2023ZM152.638 15.578C152.63 15.6226 152.624 15.6677 152.619 15.7132L152.676 15.6738C152.669 15.6357 152.656 15.5998 152.638 15.5681V15.578ZM139.338 13.6952C138.434 13.2528 137.501 12.9013 136.713 12.1319C136.704 12.1114 136.696 12.09 136.69 12.068C136.374 12.39 136.059 12.1516 135.74 12.0263C134.189 11.3921 132.641 10.7973 131.015 10.5122C130.445 10.4163 129.859 10.3647 129.305 10.0918C129.294 10.1323 129.289 10.1746 129.289 10.2172C129.559 12.39 129.559 14.5383 128.89 16.6079C128.881 16.642 128.875 16.6775 128.873 16.7136C129.897 16.0401 130.929 15.3986 132.134 15.4698L132.115 15.4526C132.136 15.0889 132.356 14.993 132.569 14.9266C134.818 14.2507 137.026 13.3953 139.348 13.6854L139.338 13.6952ZM138.252 14.73L138.234 14.7447H138.252V14.73ZM143.176 14.5039C143.176 14.5039 143.186 14.4916 143.186 14.494L143.176 14.5039ZM127.216 7.13002H127.226H127.213H127.216ZM166.191 33.6537C166.191 33.639 166.191 33.6267 166.191 33.6144C166.191 33.6021 166.177 33.6365 166.172 33.6512L166.191 33.6537ZM176.808 25.776C176.808 25.776 176.808 25.776 176.808 25.7711V25.776ZM188.758 29.8636C188.747 29.8857 188.739 29.9078 188.728 29.9299L188.789 29.8955L188.758 29.8636ZM185.002 31.1933C185.795 30.2101 186.876 30.0184 187.841 29.5194H187.86C187.86 29.1434 187.7 29.0279 187.326 29.0451C186.249 29.1188 185.194 28.9541 184.214 28.3077C184.207 28.2926 184.202 28.277 184.197 28.261H184.18C183.089 28.5313 182.069 28.4085 181.189 27.5064C181.15 27.5101 181.112 27.5101 181.073 27.5064C180.693 27.4523 180.344 27.2606 179.973 27.1869C179.213 27.0173 178.554 26.302 177.741 26.3536C178.202 26.6436 178.121 27.322 178.244 27.8456C178.624 29.5661 178.398 31.2867 178.326 33.0073C178.447 32.6115 178.768 32.6582 179.034 32.587C180.264 32.2576 181.504 31.9995 182.73 31.6308C183.446 31.4145 184.1 30.714 184.903 31.0655C184.941 31.0992 184.975 31.1407 185.002 31.1884V31.1933ZM185.928 27.0148L185.909 26.9976C185.908 27.0033 185.908 27.0091 185.909 27.0148H185.928ZM176.238 35.6176H176.262V35.6029L176.238 35.6176ZM126.291 21.3935H126.236C126.236 21.4156 126.249 21.4377 126.253 21.4598L126.291 21.3935ZM112.571 26.9902H112.583C112.583 26.9902 112.573 26.9755 112.571 26.9804V26.9902ZM77.7431 36.1805C77.7222 36.2149 77.7032 36.2518 77.6842 36.2886L77.7431 36.1805ZM38.6872 16.689H38.7024H38.6872ZM153.634 20.8724L153.611 20.838C153.611 20.8503 153.611 20.8626 153.611 20.8724H153.634ZM159.524 29.2294L159.503 29.1999V29.222H159.533L159.524 29.2294ZM162.754 32.9876C162.754 32.9729 162.744 32.9606 162.74 32.9483H162.721L162.754 32.9876ZM118.847 35.1014L118.9 35.1752L118.847 35.1014ZM92.7035 30.9229C92.6882 30.9151 92.6735 30.9052 92.6598 30.8934C92.6598 30.9156 92.6598 30.9377 92.6598 30.9623L92.7035 30.9229ZM21.6255 11.3552L21.5875 11.3208L21.6065 11.2987C21.6065 11.2987 21.6065 11.2741 21.5932 11.2594V11.3208V11.3503L21.6255 11.3552Z" fill="#A3423C"/>
</svg>
