<svg width="201" height="43" viewBox="0 0 201 43" fill="none" xmlns="http://www.w3.org/2000/svg">
<path d="M0.146286 19.5398C1.24481 21.2396 2.52422 22.7292 3.94623 23.9641C5.5213 25.6404 7.07739 27.3511 8.86908 28.6464C9.71837 29.9246 11.1281 30.1212 12.1541 31.446C11.0008 31.5911 10.0642 32.004 9.26237 32.8151C8.95378 33.0259 8.69707 33.3444 8.52138 33.7344C7.50868 35.7007 7.0869 37.9547 6.59669 40.1767C6.40671 40.8821 5.9697 41.3516 5.57829 41.8653C5.4548 42.025 5.2686 42.2069 5.38831 42.4748C5.508 42.7428 5.717 42.6641 5.89369 42.6371C6.3212 42.5732 6.7449 42.4748 7.1705 42.3913C8.03308 42.4576 8.81207 42.2045 9.45047 41.4081C10.429 40.5109 11.1091 39.2771 11.7456 37.994C12.5816 36.5487 13.2276 34.9019 14.4056 33.8155C15.1162 33.0265 15.9009 33.5869 16.6571 33.6041C17.5101 34.3145 18.5171 34.4251 19.4557 34.7938C19.982 35.0002 20.8332 35.0568 20.8826 35.6737C20.9985 37.1681 21.6027 38.4782 21.6426 39.9899C21.6673 41.1869 21.9124 41.3909 22.7484 41.0394C22.8276 41.0432 22.905 41.0081 22.965 40.9411C24.2076 39.7121 26.1113 40.3315 27.1164 38.4389C27.1626 38.3888 27.2177 38.3542 27.2767 38.3384C27.3357 38.3225 27.3968 38.3258 27.4546 38.348C28.0094 38.6724 28.2811 38.1439 28.5623 37.7286C28.9423 37.1804 29.2615 36.5856 29.6092 36.008C29.9341 35.9687 30.2894 36.153 30.5706 35.7868C31.6554 35.9564 32.6624 35.1379 33.7644 35.2436C34.4351 35.0961 35.0944 34.8601 35.7594 34.6979C36.6505 34.4791 37.5644 34.2383 38.351 33.5697C38.337 33.5432 38.3204 33.5192 38.3015 33.4984L38.3452 33.5722C38.6511 33.4665 39.0159 33.6828 39.2686 33.287C39.6106 33.174 39.9298 32.5669 40.268 32.9552C40.5245 33.2502 40.078 33.6459 40.0666 34.0367C40.0533 34.3563 40.0381 34.6782 40.0229 35.0002C39.6429 35.8802 39.8975 36.8339 39.85 37.7507C39.7968 38.8027 39.945 39.8793 39.5384 40.8723C39.4453 41.0984 39.1812 41.3024 39.451 41.6096C39.6904 41.8726 39.9279 41.7473 40.1464 41.5629C40.9995 40.8403 41.769 40.0144 42.1395 38.724L42.0882 38.6724L42.1319 38.724C42.5309 38.4168 42.5632 37.8564 42.6563 37.3623C43.0363 35.3493 43.1541 33.2502 43.8115 31.3207C44.1193 30.458 44.5886 29.8336 45.3315 29.6001C46.2263 29.3543 46.8362 28.5113 47.5525 27.8796C47.9743 27.5109 48.3125 27.0832 48.4151 28.2728C48.4968 29.2364 48.6203 30.2687 49.1485 31.0749C49.1485 31.4829 49.1371 31.8885 49.1485 32.3039C49.1599 32.7733 49.0459 33.4026 49.5665 33.4812C49.9997 33.55 50.2277 33.1101 50.2885 32.5644L50.4899 31.8467C50.6033 31.7707 50.6976 31.6546 50.7619 31.5118C50.8262 31.3691 50.8577 31.2056 50.8528 31.0405C50.8243 29.7009 50.9801 28.349 50.7255 27.0193C50.5659 26.186 50.7255 25.3995 50.9763 24.64C51.077 24.3426 51.191 24.0034 51.4931 24.0108C51.873 24.0108 51.7895 24.4581 51.8408 24.7481C52.0306 25.8637 52.4786 26.878 53.1251 27.6559C54.0561 29.0889 55.2683 29.5461 56.6648 29.3765C58.124 29.1872 59.3247 27.5428 59.566 25.4044C59.718 24.0575 58.8061 22.1501 57.6927 21.5184C57.3982 21.3254 57.0728 21.2248 56.7427 21.2248C56.4126 21.2248 56.0871 21.3254 55.7927 21.5184C55.7542 21.6021 55.6979 21.6698 55.6306 21.7134C55.5632 21.757 55.4876 21.7746 55.4127 21.7642C54.6831 21.8052 54.3031 22.2968 54.2727 23.239L54.4627 23.9764C54.8427 25.107 55.5419 24.8809 56.1176 24.4679C56.6477 24.0943 56.965 24.2221 57.2177 24.7899C57.4913 25.402 57.2443 25.9181 56.8472 26.2647C55.8706 27.093 54.2708 26.132 54.0865 24.64C54.0428 24.2811 53.8965 23.9026 53.9592 23.5683C54.1492 22.5114 53.7692 21.2456 54.5957 20.432C55.1657 19.8765 55.6521 19.203 56.2411 18.6721C56.9384 18.0404 57.7611 17.5709 58.2665 16.6296C59.8848 15.3159 61.5694 14.1441 63.309 13.1221C64.7663 12.2495 66.3489 11.8341 67.7948 10.9714C68.2371 11.0008 68.6775 10.8787 69.0716 10.6174C69.4953 10.3298 69.9323 10.3864 70.0596 11.0525C70.2496 12.1094 71.3155 12.891 70.6923 14.2331C70.6714 14.2773 70.8823 14.5059 70.9925 14.6485C71.4086 15.4915 71.9995 16.1232 72.5353 16.8262C73.5403 18.1879 75.0432 18.3722 76.2174 19.4464C73.5802 18.097 70.964 17.9716 68.3363 19.2964C68.2499 19.3429 68.1656 19.3954 68.0836 19.4537C67.1602 20.169 65.532 19.8814 65.722 22.2165C65.722 22.332 65.4902 22.4623 65.3952 22.6147C65.1406 23.0227 64.7112 23.1972 64.5345 23.706C64.2001 24.028 63.8733 24.3573 63.7346 24.8956C63.328 25.0923 63.2862 25.5126 63.5009 25.8788C63.7156 26.245 63.6206 26.5597 63.5826 26.9087L63.2235 27.4248C62.5927 27.882 62.5186 28.8259 62.1443 29.5067C62.0341 29.7083 62.0094 30.0622 62.1652 30.19C62.7352 30.6546 62.4179 31.1191 62.2488 31.6427C62.0208 32.3555 61.8365 33.0953 61.656 33.8327C61.3273 35.187 61.5629 35.6442 62.6611 35.7376C62.9347 35.7622 63.2197 35.5975 63.4952 35.6098C64.1469 35.6393 64.8765 34.9584 65.4066 35.4869C66.4402 36.5192 67.259 35.8261 68.1425 35.2632C68.4864 35.0912 68.8132 34.8257 69.1552 35.3247C69.3965 35.6762 69.7366 35.6024 70.0159 35.3861C70.7759 34.7889 71.6214 34.3194 72.1496 33.3141C72.3738 33.1789 72.6398 32.8053 72.8241 32.9896C73.5973 33.7565 73.8595 32.8741 74.2395 32.3407C74.619 32.0192 74.9399 31.5948 75.18 31.097C75.661 30.6012 75.9963 29.9072 76.13 29.1307C76.32 28.558 76.51 27.9877 76.7 27.4101C77.0439 26.9947 76.8254 26.4417 76.9128 25.9624L76.8672 25.9157C76.8824 25.9353 76.8976 25.9525 76.9109 25.9722C77.5797 24.7432 77.0458 23.2267 77.4467 21.9363C77.5246 23.4577 77.2833 24.9767 77.5493 26.4712C77.5426 26.6339 77.5766 26.795 77.6462 26.9308C77.7369 27.4038 77.857 27.8666 78.0053 28.3146C78.3093 29.052 78.4157 30.2515 79.0351 30.4113C79.8198 30.6153 80.1484 31.3551 80.6785 31.8541C80.9673 32.3457 81.2618 33.083 81.7064 32.997C82.6032 32.8053 83.1371 33.5525 83.8078 33.9802C83.9769 34.0883 84.1878 34.312 84.3189 34.253C85.419 33.7614 86.3215 34.661 87.3038 34.9339C88.0542 35.1403 88.2537 34.8208 88.2993 33.9138C88.3601 32.6652 87.9041 31.3772 88.4684 30.1532C88.5131 30.0182 88.5184 29.867 88.4835 29.7273C88.4486 29.5877 88.3757 29.4692 88.2784 29.3937C88.1834 28.4105 87.4975 27.5379 88.0884 26.4564C88.2157 26.2106 87.9668 25.8641 87.7236 25.7043L87.6742 25.7707L87.6609 25.724L87.7236 25.7043C87.4291 24.5859 86.3709 23.8756 86.6787 22.4156C86.7053 22.2853 86.4735 22.0223 86.3272 21.8797C85.8541 21.4176 85.3639 20.9801 84.8813 20.5352C84.1384 19.4759 83.0003 19.4636 82.0313 18.8442C82.7286 18.0208 83.6615 18.2518 84.3113 17.6152C85.6413 17.3227 86.9542 16.9515 88.2879 16.7549C90.8225 16.3838 93.378 15.7275 95.8669 17.1285L97.0449 18.5295C97.155 18.7704 97.2822 18.9975 97.4249 19.2079C99.6878 22.037 102.004 24.7899 104.59 27.1201C106.233 28.5948 107.82 30.2294 109.758 31.0847C109.889 31.6402 109.533 31.5444 109.34 31.5542C108.564 31.6009 107.92 32.0654 107.284 32.562C106.78 32.6332 106.562 33.1396 106.309 33.6066C105.051 35.8974 104.74 38.6847 103.875 41.182L103.685 41.4278C103.271 41.3933 103.066 41.7891 102.857 42.1381C102.648 42.4871 102.667 42.8263 103.047 42.8534C104.208 42.9468 105.327 42.7108 106.33 41.8899C106.777 41.5261 107.267 41.2262 107.66 40.7862C108.948 39.3606 109.666 37.3943 110.521 35.5606C110.812 35.192 111.116 34.838 111.394 34.4521C112.235 33.2895 113.16 32.6947 114.388 33.523C114.768 33.7688 115.22 33.8696 115.64 34.0367C116.32 34.7102 117.185 34.6586 117.947 35.0199C118.239 35.1526 118.634 35.192 118.653 35.6983C118.699 37.0477 119.383 38.1562 119.297 39.631C119.204 41.2188 119.913 41.5826 121.007 40.8084C121.475 40.479 121.94 39.9038 122.467 39.9997C123.55 40.1963 124.177 39.4295 124.756 38.493C126.035 38.4389 126.643 37.264 127.226 36.035C127.606 35.9465 128.03 36.1973 128.366 35.7892C129.533 35.8802 130.625 35.133 131.799 35.278C131.972 35.2959 132.147 35.2639 132.309 35.1845C132.472 35.105 132.619 34.98 132.74 34.8183L132.7 34.7643L132.732 34.8183C133.047 34.7446 133.403 34.9167 133.682 34.5726L133.648 34.5185C133.649 34.5062 133.649 34.4939 133.648 34.4816L133.676 34.5726C134.148 34.5859 134.611 34.4145 135.006 34.081L134.972 34.0293C134.972 34.0293 134.972 34.0146 134.972 34.0072L135.003 34.081C135.844 33.9777 136.606 33.5525 137.372 33.1371C137.562 33.0388 137.761 32.7365 137.951 33.029C138.115 33.2748 137.902 33.55 137.845 33.8106L137.828 34.2751C137.541 34.6389 137.678 35.1059 137.638 35.5287C137.566 37.2665 137.828 39.0337 137.336 40.7346C137.258 41.005 136.956 41.3221 137.26 41.5851C137.382 41.6862 137.528 41.7294 137.672 41.7074C137.817 41.6855 137.951 41.5997 138.052 41.4646C138.776 40.5134 139.663 39.7441 140.108 38.4758C140.566 37.8072 140.376 36.9371 140.533 36.1727C140.913 34.312 140.987 32.3284 141.863 30.6669L141.799 30.5808L141.858 30.6743C143.032 29.7329 144.244 28.8578 145.367 27.823C146.011 27.2282 146.233 27.5551 146.294 28.2974C146.418 29.7968 146.982 31.1806 146.953 32.7217C146.953 33.0191 146.978 33.3313 147.212 33.4591C147.512 33.614 147.698 33.292 147.835 33.0437C148.27 32.2424 148.698 31.419 148.661 30.3719C148.604 28.8283 148.521 27.2872 148.471 25.7412C148.451 25.048 148.625 24.3082 149.148 24.1337C149.758 23.9272 149.429 24.9964 149.796 25.2348C149.836 25.8223 150.142 26.2401 150.366 26.7096C150.67 27.9214 151.527 28.3392 152.266 28.9217C152.933 29.6223 154.656 29.6198 155.306 28.9217C155.428 28.9251 155.548 28.8798 155.65 28.7919C155.752 28.704 155.831 28.5777 155.876 28.4301L156.066 28.1844C156.784 28.0393 156.835 27.1692 157.048 26.5523C157.578 25.021 157.156 23.3348 156.028 22.128C155.102 21.1276 154.196 21.0834 153.111 21.9854C153.081 22.0051 153.052 22.029 153.026 22.0567C152.579 22.5311 151.907 22.9121 152.311 23.878C152.68 24.758 153.261 24.6547 153.852 24.2197C154.377 23.8387 154.842 23.9739 155.146 24.6474C155.45 25.3208 155.323 26.0091 154.814 26.4613C154.483 26.7783 154.083 26.9482 153.672 26.9456C153.261 26.9429 152.861 26.7678 152.534 26.4466C151.466 25.5003 151.416 24.0083 151.327 22.5458C151.394 21.5872 151.601 20.7147 152.214 20.0879C154.375 17.8512 156.584 15.725 159.113 14.2036C159.125 14.1711 159.145 14.145 159.17 14.1298L159.113 14.2036C159.336 14.2187 159.559 14.1617 159.76 14.0377C159.962 13.9136 160.137 13.7265 160.268 13.4932L160.238 13.449C160.237 13.4441 160.237 13.4391 160.238 13.4342L160.267 13.4932C161.095 13.3752 161.786 12.8542 162.48 12.3109C162.505 12.2994 162.528 12.2819 162.548 12.2593C163.58 12.0799 164.526 11.5219 165.52 11.1557C166.06 10.9615 166.599 10.5879 167.135 10.5953C167.895 10.5953 167.773 11.7677 168.187 12.2765C168.261 12.3519 168.34 12.4178 168.423 12.4732C168.636 12.7755 168.919 13.1589 168.733 13.5301C168.294 14.3953 168.744 14.7591 169.174 15.1892C169.875 16.5706 170.986 17.2858 172.024 18.1117C172.242 18.4024 172.512 18.6211 172.809 18.7494C173.107 18.8776 173.424 18.9118 173.734 18.8491C173.827 19.1145 174.134 19.1981 174.1 19.5717C173.756 19.6995 173.473 19.4119 173.15 19.3259C172.493 18.8958 171.777 18.7581 171.06 18.5885C170.135 18.1946 169.136 18.1946 168.21 18.5885C167.975 18.6721 167.739 18.7631 167.502 18.8343C166.618 19.1072 165.693 19.2301 164.965 20.0412C164.353 20.1567 163.517 20.5819 163.55 21.1595C163.629 22.6343 162.79 22.9538 162.185 23.5978C161.361 24.4704 160.603 25.3528 161.18 26.9234C160.736 27.6585 160.362 28.4608 160.067 29.3126C159.961 29.6001 159.79 29.9369 160.042 30.2023C160.472 30.6521 160.331 31.038 160.092 31.5517C159.893 32.0565 159.738 32.5882 159.63 33.1371C159.077 35.3247 159.311 35.7106 161.076 35.5164C161.292 35.4943 161.505 35.3812 161.722 35.364C162.307 35.3149 162.909 35.0813 163.462 35.5484C164.139 36.1432 164.792 35.6835 165.438 35.455C165.991 35.2583 166.535 34.4914 167.093 35.4844C167.146 35.5803 167.473 35.5139 167.621 35.4132C168.265 34.9929 168.934 34.6094 169.388 33.8303C169.81 33.8303 170.07 32.9331 170.338 33.1887C171.184 34.0072 171.503 32.9872 172.003 32.5693C173.832 30.571 174.492 27.7935 174.936 24.7776C175.506 25.5003 175.001 26.3802 175.43 26.9554C175.899 28.4474 176 30.0376 177.573 30.8045C178.523 31.2715 179.093 32.793 180.423 33.2453C181.4 33.5795 182.297 34.3145 183.391 34.0908C184.13 34.752 184.985 35.3443 185.739 34.752C186.494 34.1596 186.11 33.0019 185.96 32.0482C185.903 31.6796 185.614 31.2666 185.985 30.9373C186.431 30.5391 186.315 30.0499 186.199 29.5239C186.045 28.8259 185.629 27.9336 185.831 27.4593C186.232 26.4761 185.88 25.8788 185.557 25.166C185.287 24.7727 185.177 24.2172 184.797 23.937C184.417 23.384 185.074 22.6589 184.607 22.1132C183.292 20.5893 181.947 19.1293 180.064 19.0211C179.84 18.1756 180.425 18.3624 180.703 18.2371C182.935 17.2259 185.264 16.6171 187.624 16.428C190.045 16.2338 192.64 15.58 194.662 18.2838C194.698 18.3305 194.781 18.3206 194.852 18.3354C196.423 20.0781 197.985 21.8453 199.389 23.8313C199.769 24.3795 200.234 24.876 200.745 24.2123C201.209 23.6126 200.977 22.9538 200.559 22.3885C199.729 21.28 198.908 20.1592 198.089 19.0433C197.289 17.6766 197.443 16.1331 197.629 14.6042C197.852 12.7608 197.74 11.0476 196.712 9.59738C196.579 9.40812 196.448 9.21886 196.237 9.28522C196.026 9.35159 195.992 9.63179 195.999 9.87759C196.058 11.8317 195.087 13.417 194.97 15.3367C193.497 14.5059 192.443 13.0852 191.044 12.4314L190.695 12.1659L190.296 10.9542C189.893 8.83295 189.752 6.63309 189.156 4.56351L188.776 4.07192L187.463 2.09082C187.237 1.64593 186.959 1.15434 186.513 1.43454C186.066 1.71475 186.564 2.19897 186.513 2.59224C186.955 4.99119 186.37 7.4688 186.94 9.87759C186.517 9.86038 186.262 9.40566 185.89 9.54084L185.354 9.46219C185.164 8.91161 184.784 8.9706 184.404 8.9706C184.363 8.88869 184.302 8.82621 184.231 8.79254C184.16 8.75887 184.083 8.7558 184.01 8.7838C182.739 8.47164 181.52 7.85961 180.211 7.73671C179.878 7.40243 179.466 7.38523 179.082 7.24512C178.084 6.8666 177.019 7.28937 176.042 6.75354C175.78 6.26195 175.516 5.78511 175.253 5.29843C175.111 5.08951 174.968 4.69624 174.824 4.69624C173.81 4.68395 173.198 3.76959 172.485 3.07154C172.388 2.97568 172.234 2.84295 172.153 2.88227C171.091 3.37386 170.403 2.31449 169.559 1.89909C169.236 1.73933 168.841 1.36572 168.609 2.1031L168.419 2.32432C168.283 2.58125 168.21 2.88543 168.21 3.19689C168.21 3.50835 168.283 3.81253 168.419 4.06946C168.419 4.47502 168.419 4.88058 168.433 5.28614C167.504 5.74332 167.711 6.80761 167.654 7.72934C166.958 7.66298 166.364 8.04642 165.771 8.44215L165.41 8.49868C165.204 8.47972 164.998 8.51338 164.802 8.59773C164.606 8.68208 164.425 8.81547 164.27 8.99027C163.932 8.99027 163.586 8.91653 163.272 9.14758C162.995 9.35895 162.688 9.49711 162.37 9.55407C162.051 9.61103 161.727 9.58564 161.416 9.4794L161.462 9.53593C161.443 9.52243 161.427 9.50296 161.416 9.4794C160.542 8.84121 159.819 7.90632 159.326 6.77566C159.157 5.65729 158.566 4.8093 158.083 3.94656C157.373 2.65614 156.626 1.27724 155.266 0.942955C154.401 0.751236 153.539 0.552143 152.67 0.380089C152.519 0.346817 152.363 0.392776 152.237 0.507896C152.102 0.675037 152.216 0.898712 152.336 1.02898C153.624 2.43985 153.845 4.52664 154.394 6.40696C154.774 7.7318 155.123 9.11071 156.069 9.98819C156.211 10.2877 156.41 10.5353 156.647 10.7074C156.884 10.8795 157.151 10.9704 157.422 10.9714L158.868 11.6129C158.741 12.0873 158.444 12.1045 158.194 12.2003C157.895 12.3134 157.557 12.3478 157.304 12.5567C155.562 13.9848 153.736 15.2605 152.175 17.0253C151.004 18.3477 149.722 19.5152 148.709 21.0637C147.548 22.3664 146.351 23.6199 145.24 24.9964C143.836 26.717 142.124 26.717 140.389 26.6186C139.042 26.5351 137.701 26.3311 136.357 26.1787C136.294 26.1218 136.219 26.0909 136.143 26.0902C134.433 25.3872 132.62 25.1562 130.899 24.1927C131.628 23.5782 132.491 23.6642 133.116 23.0104C134.165 22.6786 134.826 21.5946 135.628 20.7982C135.78 20.6483 135.949 20.1985 135.886 20.0608C135.432 19.1342 136.125 18.7114 136.35 18.0945C136.648 17.5759 137.193 16.9048 137.026 16.4501C136.599 15.2949 137.142 14.4199 137.252 13.4244C137.292 13.0729 137.341 12.6059 137.205 12.3576C136.876 11.7628 136.916 11.1287 136.918 10.4872C137.054 10.1856 137.126 9.84242 137.126 9.49292C137.126 9.14341 137.054 8.80022 136.918 8.49868C136.77 7.81046 136.45 7.81291 135.968 7.98743C135.257 8.24797 134.571 9.06646 133.878 8.801C133.215 8.55521 132.797 8.80101 132.324 9.16724C131.801 9.57526 131.374 10.2192 130.631 9.83826C130.397 9.72028 130.097 10.0152 130.044 10.4577C129.462 10.9492 129.162 11.7702 128.714 12.424C127.65 12.193 127.178 12.9156 127.026 14.1692C126.662 15.0884 126.646 16.1355 126.436 17.099C126.371 17.1488 126.319 17.2216 126.285 17.3088C126.251 17.3959 126.238 17.4937 126.246 17.5906C125.486 17.6619 125.799 16.7967 125.721 16.4133C125.396 14.8008 125.085 13.2179 124.112 12.0062C124.023 11.8931 123.922 11.7849 123.844 11.6645C123.113 10.6051 122.598 9.04188 121.123 9.73748C120.479 8.86983 119.805 8.0587 118.874 7.72934C118.251 6.5864 117.872 7.97514 117.354 7.97514C116.294 7.46388 115.264 6.32094 114.099 7.70967C113.996 7.83012 113.719 7.79079 113.552 7.70967C112.875 7.4221 112.18 7.50813 111.49 7.49584C110.466 7.48109 110.28 7.78587 110.499 9.10087C110.572 9.4115 110.661 9.71534 110.767 10.0103C110.97 10.7329 111.5 11.6965 111.31 12.1364C110.708 13.5301 111.523 14.3486 111.811 15.3711C111.963 16.0151 112.438 16.5755 112.019 17.3669C111.889 17.6127 112.125 17.9495 112.383 18.0773C113.117 18.8319 113.713 19.7978 114.557 20.3853C114.698 20.4836 114.844 20.6581 114.779 20.8769C114.367 22.1943 115.222 22.2115 115.777 22.5409L115.976 22.7867C116.774 23.7699 117.757 24.0329 118.811 24.0157L118.853 23.9444L118.803 24.0132C119.126 24.3991 119.523 24.4311 119.943 24.4827C121.186 24.6351 122.37 24.1951 123.576 23.9764C124.045 23.9764 124.448 23.4381 124.976 23.7109C123.291 24.4532 121.581 25.2348 120.39 27.1569C120.16 27.7837 119.349 28.1254 119.493 28.7767C119.774 30.0426 119.1 30.8242 118.868 31.8221C118.811 32.3948 118.638 32.53 118.161 32.3629C115.121 31.3109 112.167 30.0106 109.38 28.1155C108.872 27.6977 108.399 27.2036 107.812 26.9677C106.334 26.0238 105.087 24.6523 103.805 23.3471C102.475 21.9952 102.059 19.0924 102.954 17.2563C103.227 16.7075 103.643 16.3033 104.127 16.1166C104.611 15.93 105.13 15.9733 105.591 16.2387C106.4 16.7303 106.514 17.2637 106.129 18.8024C105.938 18.9859 105.707 19.0851 105.469 19.0851C105.232 19.0851 105.001 18.9859 104.81 18.8024C104.419 18.006 103.94 18.2395 103.556 18.7311C103.172 19.2227 103.195 19.788 103.602 20.3435C104.468 21.5282 105.768 21.7175 106.908 20.7687C108.177 19.4636 108.471 17.5464 107.673 15.8258C107.661 15.6748 107.62 15.5302 107.553 15.4049C107.487 15.2797 107.398 15.1777 107.293 15.1081C107.139 14.6657 106.832 14.4641 106.533 14.2453C104.647 12.8959 102.298 14.1888 101.403 16.3543C100.915 16.8999 100.851 17.6914 100.706 18.4239C100.562 19.1563 100.339 19.058 100.02 18.6205C99.9246 18.5157 99.8462 18.387 99.7897 18.2422C99.7332 18.0973 99.6998 17.9393 99.6916 17.7774C99.7049 16.5632 99.6118 15.3195 99.7657 14.1397C99.9138 13.0631 99.8202 11.9541 99.4959 10.9443C99.4329 10.6779 99.3587 10.4162 99.2736 10.1602C99.1007 9.70061 98.8062 9.29013 98.4205 9.40812C98.0348 9.5261 98.1868 10.0742 98.1716 10.4577C98.1564 10.8411 98.1602 11.2565 98.1545 11.6571L98.1963 11.6965L98.1545 11.6448C97.9303 12.2593 97.6795 12.8492 97.5845 13.5424C97.3603 15.3195 97.3451 15.317 96.0645 14.6435C96.0027 14.6217 95.9386 14.6118 95.8745 14.614C94.9777 13.8939 94.0221 13.299 93.2146 12.4019C92.9612 11.7464 92.7079 11.091 92.4546 10.4355C92.4679 9.73503 92.4413 9.0468 92.0746 8.46918C92.0119 8.07591 91.9264 7.68756 91.8846 7.28937C91.6946 5.07722 91.0448 3.17477 89.6046 1.83519C89.2797 1.5894 89.0004 0.852009 88.5938 1.26495C88.2271 1.63364 88.5235 2.24812 88.7059 2.72005C88.8883 3.19197 88.8199 3.67865 88.8427 4.1604C88.9263 6.04319 88.6033 7.95547 89.2607 10.175C88.5862 9.50397 88.0276 9.43761 87.4994 9.21885C85.8902 8.57241 84.3094 7.74409 82.5861 7.71705L82.5006 7.66544C82.0807 7.41964 81.6152 7.37048 81.1706 7.21317C80.0497 6.81007 78.7007 7.47126 77.802 6.02353C77.422 5.63271 77.3194 4.7159 76.7019 4.84617C76.0844 4.97644 75.826 4.55859 75.5258 4.07192C75.2788 3.4009 74.8095 2.75938 74.3193 2.89211C73.4111 3.1379 72.845 2.43493 72.1648 2.02199C71.9715 1.88817 71.7525 1.82929 71.534 1.85239C71.4754 1.85287 71.417 1.84711 71.3592 1.83519C71.2977 1.78464 71.2273 1.75498 71.1545 1.74896C71.0818 1.74295 71.0091 1.76077 70.9431 1.80078C70.5954 1.8696 70.4529 2.29237 70.4149 3.23376C70.375 4.26855 70.4985 5.33039 70.0444 6.27916C70.0432 6.35442 70.0362 6.42935 70.0235 6.50283C69.8601 7.27216 69.6112 7.90631 68.8683 7.89402C68.7505 7.89402 68.6308 8.11278 68.513 8.23076C67.7397 8.10541 67.0576 8.42248 66.423 8.96815C66.0051 8.98535 65.532 8.78134 65.2831 9.45974C64.7131 9.45974 64.1431 9.70553 63.5731 9.45974C62.34 8.62403 61.6579 7.15664 60.9587 5.69662C60.0961 3.8974 59.2924 2.02199 57.6775 1.12238C57.5918 1.01901 57.4927 0.935829 57.3849 0.876591C56.6249 0.296516 55.7509 0.185905 54.875 0.139206C54.5729 0.119541 54.115 -0.0230179 54.0371 0.431702C53.9592 0.886421 54.3411 1.16909 54.6717 1.33623L55.0175 1.65576C55.0194 1.61047 55.0232 1.56534 55.0289 1.52057L55.1011 1.59922L55.0175 1.65576C55.6521 3.16248 56.0169 4.79947 56.4311 6.41925C56.9897 8.61666 57.8333 10.5265 59.7085 11.2983C60.0733 11.4507 60.5312 11.2344 60.8827 11.7481C57.7056 13.7804 54.7778 16.4084 52.1942 19.5471C52.1942 19.5471 52.177 19.5471 52.1675 19.5766C50.9649 20.926 49.7926 22.3246 48.5576 23.6077C47.6589 24.5318 46.9008 25.8763 45.719 26.1172C44.6114 26.3409 43.4733 26.5646 42.3333 26.4097C41.8583 25.9476 41.3111 26.2696 40.8038 26.1639L39.489 26.1467C39.3595 26.0786 39.2221 26.0388 39.0824 26.0287L34.5339 24.6941C34.2527 24.3623 33.7739 24.5982 33.4889 24.0747C33.8936 23.8829 34.2698 23.7183 34.6289 23.5266C35.4383 23.1112 36.3066 22.8137 36.8234 21.7839L36.7683 21.7224H36.793L36.8234 21.7962C37.42 21.4029 38.1971 20.8744 38.0356 20.0338C37.8931 19.2964 38.1192 19.0506 38.3548 18.6107C38.5656 18.2149 38.8544 17.8733 38.9247 17.3547C39.6163 16.6025 38.995 15.7005 39.0919 14.8795C39.603 14.2134 39.793 13.127 39.5308 12.5641C39.014 11.458 39.3085 10.5216 39.4263 9.49169C39.4909 8.91407 39.4035 8.34629 39.0197 7.9776C38.636 7.6089 38.2598 7.83995 37.9406 8.23814C37.097 8.14719 36.3598 9.39337 35.4364 8.5675C35.3737 8.51097 35.1495 8.75676 34.9728 8.91407C34.9467 8.92779 34.9228 8.94781 34.9025 8.97306C34.5225 8.99518 34.3325 9.42286 34.0095 9.58017C33.7739 9.69815 33.6846 10.2659 33.3236 9.97345C32.8106 9.56297 32.5313 9.99802 32.2444 10.4355C31.7547 10.8702 31.3616 11.4635 31.1044 12.1561C30.0139 12.4019 29.3052 13.1393 29.2178 14.6485L29.1988 15.1204C28.6839 15.2875 28.6725 15.8356 28.6402 16.3641C28.3495 16.5878 28.5262 17.0646 28.3894 17.4333L28.0816 16.8557C27.7585 14.531 26.8971 12.3881 25.6116 10.7108C25.2468 10.1381 24.8402 9.1402 24.3006 9.48186C23.5407 9.97345 23.2272 9.37371 22.7693 8.97552C22.5971 8.64443 22.3748 8.36197 22.1159 8.14523C21.8569 7.9285 21.5666 7.782 21.2626 7.71459C21.0726 7.33607 20.704 7.06815 20.4551 7.29183C19.6514 8.01446 18.9921 7.29183 18.2606 7.12714C17.7571 7.00671 17.0276 6.38976 16.754 6.96C16.2486 8.00217 15.7641 7.47863 15.1903 7.35328C14.6281 7.25567 14.0598 7.22933 13.4936 7.27462C12.631 7.30412 12.3536 7.78833 12.6234 8.84525C12.9312 10.0496 13.2922 11.2319 13.6304 12.4216C13.3435 12.6329 12.9084 12.7608 13.1554 13.3654C13.5126 14.238 13.7672 15.2039 14.4075 15.8406L14.7742 16.3567C14.3543 16.9294 13.9116 17.5046 14.7609 18.0969C15.2264 18.7311 15.5646 19.5545 16.2809 19.7978C16.7198 20.2378 17.4095 20.4615 17.0599 21.5184C16.9592 21.8232 17.2289 21.9952 17.4265 22.1354C17.8065 22.4082 18.1865 22.6933 18.5665 22.9735C18.6111 23.1036 18.679 23.218 18.7645 23.3074C18.8501 23.3967 18.9509 23.4584 19.0586 23.4872C20.3114 24.0289 21.614 24.3537 22.9327 24.4532C23.3773 24.3745 23.8618 24.6646 24.2626 24.2197L24.8231 24.2025C25.6914 24.2025 26.4571 23.4946 27.3482 23.6077C26.6015 24.1656 25.7199 24.2983 25.0093 24.9349C23.8694 25.7166 22.7427 26.5179 22.1594 28.1303C22.0777 28.4252 21.6939 28.7005 21.8592 28.9463C22.4292 29.7771 21.7357 30.2269 21.5932 30.8365C21.5366 30.9211 21.4985 31.0238 21.483 31.1339C21.0289 32.2621 20.343 32.6504 19.3303 32.0482L13.0433 29.1159C11.0415 27.8728 9.1333 26.3917 7.34338 24.6916C7.2598 24.3967 7.0546 24.2787 6.8703 24.1189C5.43391 22.8899 4.52193 21.3931 4.85442 18.9572C5.13182 16.9171 6.01341 15.7275 7.64169 16.2904C8.40167 16.5534 8.72658 17.3301 8.42638 18.1363C8.09578 19.0261 7.63219 19.1391 6.98999 18.5173C6.89935 18.4151 6.79366 18.3378 6.67928 18.29C6.5649 18.2422 6.4442 18.2249 6.32451 18.2392C6.20482 18.2534 6.08859 18.2989 5.98288 18.3729C5.87715 18.4469 5.78412 18.5478 5.70941 18.6697C5.37122 19.1932 5.28001 19.8716 5.70941 20.3288C6.44279 21.1128 7.2617 21.7519 8.29909 21.3783C10.7159 20.5033 11.3029 17.0277 9.43907 14.6411C8.39598 13.304 6.1958 13.3015 4.89621 14.4223C3.80563 15.3613 3.20332 16.6591 2.84804 18.2125C2.75114 18.6328 2.78914 19.1612 2.25334 19.0015L2.20395 19.1072L2.18875 19.085C2.18875 19.085 2.25334 19.0015 2.25334 19.0039C2.14314 18.355 1.69476 18.1387 1.31857 17.8979C1.14783 17.7834 0.950729 17.7533 0.764053 17.813C0.577377 17.8727 0.413849 18.0182 0.30397 18.2223C0.0702667 18.6229 -0.157715 19.0752 0.146286 19.5398ZM133.692 34.2874C133.683 34.2729 133.674 34.259 133.665 34.2456L133.688 34.285L133.692 34.2874ZM22.1765 37.2812V37.3574V37.3353C22.0853 37.4311 22.1176 37.2099 22.1765 37.2812ZM22.1765 37.2812C22.1847 37.2913 22.1917 37.3029 22.1974 37.3156C22.2368 37.4753 22.2623 37.6402 22.2734 37.8072C22.2595 37.627 22.2269 37.4501 22.1765 37.2812ZM28.2564 23.2267C28.2779 23.2378 28.2978 23.2536 28.3153 23.2734L28.2659 23.2906C28.2659 23.2685 28.2659 23.2488 28.2564 23.2267ZM42.3048 29.5583H42.2839L42.2972 29.5362L42.3048 29.5583ZM38.4402 30.7873C37.9007 31.1216 37.1806 30.9766 36.8196 31.7828H36.8063C36.7888 31.7524 36.7676 31.7258 36.7436 31.7041C35.0751 31.7661 33.4263 32.1864 31.8644 32.9479L31.7162 32.8815C30.9297 32.6603 31.7162 32.0482 31.5358 31.6796C31.5358 31.4952 31.5358 31.3109 31.5471 31.1265C31.6117 30.6484 31.6117 30.1594 31.5471 29.6812C31.5471 29.3199 31.5471 28.9611 31.5262 28.5997C31.4256 27.8255 31.6022 26.9357 30.9848 26.3876C31.6098 26.1811 32.1513 27.0684 32.7935 26.6703C33.0988 27.1034 33.4845 27.4286 33.9141 27.6148C34.3437 27.8011 34.8029 27.8423 35.2483 27.7346C35.268 27.712 35.2847 27.6854 35.2977 27.6559C35.7784 28.263 36.3028 28.6219 36.9697 28.1475C36.9836 28.1931 37.0049 28.2342 37.0324 28.2679C37.912 28.9463 38.8867 29.0053 39.869 28.9734L39.9773 28.9586C40.3383 29.4502 40.9026 29.0078 41.3073 29.2044C40.9653 29.6075 40.325 29.4895 40.078 30.1335C40.035 30.1286 39.9918 30.1286 39.9488 30.1335C39.4265 30.2721 38.9196 30.4951 38.4402 30.7971V30.7873ZM39.6543 31.3182H39.6353C39.6353 31.3182 39.6467 31.2986 39.6524 31.2863L39.6543 31.3182ZM28.2526 21.511L28.2279 21.484H28.2526V21.516V21.511ZM22.5603 40.8968H22.5508H22.5603ZM38.1401 33.056H38.1287H38.1401ZM73.5479 3.64424L73.7379 3.6934C73.6722 3.70426 73.6054 3.687 73.5479 3.64424ZM77.8381 20.3189L77.7944 20.2747H77.8058C77.7469 20.1739 77.84 20.2698 77.8381 20.3189ZM82.3638 15.7914C81.6342 16.106 80.8172 16.2068 80.2301 16.9688C80.2251 17.0045 80.2219 17.0406 80.2206 17.0769C80.0307 17.0622 79.7476 17.1482 79.9224 16.6418C80.0595 16.2448 80.1326 15.8158 80.1371 15.3809C80.5018 15.1351 80.118 14.6755 80.3043 14.3756C80.6087 13.3469 80.6087 12.209 80.3043 11.1803C80.3821 11.0033 80.3176 10.7207 80.2719 10.4429C80.3232 10.0447 80.517 9.90954 80.9901 9.80139C82.732 10.147 84.4545 10.6397 86.1467 11.2762C86.9219 11.5687 87.6191 12.2102 88.4722 12.1586L90.5261 13.1417C90.6401 13.7169 90.4026 13.7857 90.0283 13.8201C87.4203 14.0644 84.8458 14.7266 82.3638 15.7914ZM80.2739 17.512H80.2625H80.2739ZM76.51 25.6379C76.5157 25.6392 76.5214 25.6392 76.5271 25.6379L76.51 25.6797V25.6379ZM86.7984 16.1036H86.7642L86.7927 16.0691L86.7984 16.1036ZM77.6538 25.9034L77.669 25.9353H77.6538V25.9034ZM126.211 21.5823H126.228H126.209H126.211ZM136.306 11.463C136.319 11.4523 136.333 11.444 136.348 11.4384C136.348 11.4777 136.348 11.517 136.348 11.5539L136.306 11.463ZM152.661 17.5759H152.682L152.663 17.6004C152.663 17.5922 152.662 17.5839 152.661 17.5759ZM151.397 26.6703C151.419 26.7146 151.442 26.7573 151.468 26.7981H151.416C151.412 26.7583 151.406 26.7189 151.397 26.6801V26.6703ZM152.638 27.2946C152.63 27.25 152.624 27.2048 152.619 27.1594L152.676 27.1987C152.669 27.2369 152.656 27.2728 152.638 27.3044V27.2946ZM139.338 29.1774C138.434 29.6198 137.501 29.9713 136.713 30.7406C136.704 30.7612 136.696 30.7825 136.69 30.8045C136.374 30.4825 136.059 30.721 135.74 30.8463C134.189 31.4805 132.641 32.0753 131.015 32.3604C130.445 32.4563 129.859 32.5079 129.305 32.7807C129.294 32.7403 129.289 32.6979 129.289 32.6554C129.559 30.4825 129.559 28.3343 128.89 26.2647C128.881 26.2305 128.875 26.195 128.873 26.159C129.897 26.8325 130.929 27.474 132.134 27.4027L132.115 27.4199C132.136 27.7837 132.356 27.8796 132.569 27.9459C134.818 28.6219 137.026 29.4772 139.348 29.1872L139.338 29.1774ZM138.252 28.1426L138.234 28.1278H138.252V28.1426ZM143.176 28.3687C143.176 28.3687 143.186 28.381 143.186 28.3785L143.176 28.3687ZM127.216 35.7425H127.226H127.213H127.216ZM166.191 9.21885C166.191 9.2336 166.191 9.24589 166.191 9.25818C166.191 9.27047 166.177 9.23606 166.172 9.22131L166.191 9.21885ZM176.808 17.0966C176.808 17.0966 176.808 17.0966 176.808 17.1015V17.0966ZM188.758 13.009C188.747 12.9869 188.739 12.9648 188.728 12.9426L188.789 12.9771L188.758 13.009ZM185.002 11.6793C185.795 12.6624 186.876 12.8542 187.841 13.3531H187.86C187.86 13.7292 187.7 13.8447 187.326 13.8275C186.249 13.7538 185.194 13.9184 184.214 14.5649C184.207 14.58 184.202 14.5956 184.197 14.6116H184.18C183.089 14.3412 182.069 14.4641 181.189 15.3662C181.15 15.3624 181.112 15.3624 181.073 15.3662C180.693 15.4202 180.344 15.612 179.973 15.6857C179.213 15.8553 178.554 16.5706 177.741 16.5189C178.202 16.2289 178.121 15.5505 178.244 15.027C178.624 13.3064 178.398 11.5859 178.326 9.8653C178.447 10.261 178.768 10.2143 179.034 10.2856C180.264 10.615 181.504 10.8731 182.73 11.2417C183.446 11.458 184.1 12.1586 184.903 11.8071C184.941 11.7734 184.975 11.7319 185.002 11.6842V11.6793ZM185.928 15.8578L185.909 15.875C185.908 15.8693 185.908 15.8634 185.909 15.8578H185.928ZM176.238 7.25496H176.262V7.26971L176.238 7.25496ZM126.291 21.4791H126.236C126.236 21.457 126.249 21.4348 126.253 21.4127L126.291 21.4791ZM112.571 15.8823H112.583C112.583 15.8823 112.573 15.8971 112.571 15.8922V15.8823ZM77.7431 6.69209C77.7222 6.65768 77.7032 6.62081 77.6842 6.58394L77.7431 6.69209ZM38.6872 26.1836H38.7024H38.6872ZM153.634 22.0002L153.611 22.0346C153.611 22.0223 153.611 22.01 153.611 22.0002H153.634ZM159.524 13.6432L159.503 13.6726V13.6505H159.533L159.524 13.6432ZM162.754 9.88496C162.754 9.89971 162.744 9.912 162.74 9.92429H162.721L162.754 9.88496ZM118.847 7.77113L118.9 7.69739L118.847 7.77113ZM92.7035 11.9496C92.6882 11.9575 92.6735 11.9674 92.6598 11.9791C92.6598 11.957 92.6598 11.9349 92.6598 11.9103L92.7035 11.9496ZM21.6255 31.5173L21.5875 31.5517L21.6065 31.5739C21.6065 31.5739 21.6065 31.5984 21.5932 31.6132V31.5517V31.5222L21.6255 31.5173Z" fill="#A3423C"/>
</svg>
