<svg width="1461" height="296" viewBox="0 0 1461 296" fill="none" xmlns="http://www.w3.org/2000/svg">
<g filter="url(#filter0_d_415_23)">
<path fill-rule="evenodd" clip-rule="evenodd" d="M-2 48.1784L79.3367 64.2379C160.673 80.2974 324.327 112.416 487 128.476C649.673 144.535 813.327 144.535 976 168.089C1138.67 192.714 1302.33 240.892 1383.66 264.446L1465 288V0H1383.66C1302.33 0 1138.67 0 976 0C813.327 0 649.673 0 487 0C324.327 0 160.673 0 79.3367 0H-2V48.1784Z" fill="#2A2B2A"/>
<path fill-rule="evenodd" clip-rule="evenodd" d="M-2 48.1784L79.3367 64.2379C160.673 80.2974 324.327 112.416 487 128.476C649.673 144.535 813.327 144.535 976 168.089C1138.67 192.714 1302.33 240.892 1383.66 264.446L1465 288V0H1383.66C1302.33 0 1138.67 0 976 0C813.327 0 649.673 0 487 0C324.327 0 160.673 0 79.3367 0H-2V48.1784Z" stroke="#2A2B2A"/>
</g>
<defs>
<filter id="filter0_d_415_23" x="-6" y="0" width="1475" height="296" filterUnits="userSpaceOnUse" color-interpolation-filters="sRGB">
<feFlood flood-opacity="0" result="BackgroundImageFix"/>
<feColorMatrix in="SourceAlpha" type="matrix" values="0 0 0 0 0 0 0 0 0 0 0 0 0 0 0 0 0 0 127 0" result="hardAlpha"/>
<feOffset dy="4"/>
<feGaussianBlur stdDeviation="2"/>
<feComposite in2="hardAlpha" operator="out"/>
<feColorMatrix type="matrix" values="0 0 0 0 0 0 0 0 0 0 0 0 0 0 0 0 0 0 0.25 0"/>
<feBlend mode="normal" in2="BackgroundImageFix" result="effect1_dropShadow_415_23"/>
<feBlend mode="normal" in="SourceGraphic" in2="effect1_dropShadow_415_23" result="shape"/>
</filter>
</defs>
</svg>
